<?xml version="1.0" encoding="UTF-8" standalone="no"?>
<svg
   id="logo"
   viewBox="0 0 256 256"
   version="1.1"
   sodipodi:docname="icon.svg"
   width="256"
   height="256"
   inkscape:version="1.3.2 (091e20e, 2023-11-25, custom)"
   inkscape:export-filename="icon.png"
   inkscape:export-xdpi="96"
   inkscape:export-ydpi="96"
   xmlns:inkscape="http://www.inkscape.org/namespaces/inkscape"
   xmlns:sodipodi="http://sodipodi.sourceforge.net/DTD/sodipodi-0.dtd"
   xmlns="http://www.w3.org/2000/svg"
   xmlns:svg="http://www.w3.org/2000/svg">
  <defs
     id="defs19" />
  <sodipodi:namedview
     id="namedview19"
     pagecolor="#ffffff"
     bordercolor="#666666"
     borderopacity="1.0"
     inkscape:showpageshadow="2"
     inkscape:pageopacity="0.0"
     inkscape:pagecheckerboard="0"
     inkscape:deskcolor="#d1d1d1"
     inkscape:zoom="1.8633707"
     inkscape:cx="48.836231"
     inkscape:cy="144.63038"
     inkscape:window-width="1858"
     inkscape:window-height="1057"
     inkscape:window-x="1974"
     inkscape:window-y="-8"
     inkscape:window-maximized="1"
     inkscape:current-layer="logo" />
  <rect
     width="256"
     height="256"
     fill="#ffcc00"
     id="rect1"
     x="0"
     y="0"
     style="stroke-width:2.29109"
     ry="40" />
  <g
     id="g20"
     transform="translate(0,86.347089)">
    <g
       id="g13"
       transform="matrix(1.3061224,0,0,1.3061224,0,-2.3879694)">
      <g
         id="g7">
        <g
           id="g3">
          <polygon
             points="26.5058,29.9011 25.0581,31.8714 0,31.8714 0,29.9011 "
             fill="#d40511"
             id="polygon1" />
          <polygon
             points="29.1986,26.2454 27.7483,28.213 0,28.213 0,26.2454 "
             fill="#d40511"
             id="polygon2" />
          <polygon
             points="23.8146,33.5595 22.3733,35.5163 0,35.5163 0,33.5595 "
             fill="#d40511"
             id="polygon3" />
        </g>
        <g
           id="g6">
          <polygon
             points="169.5976,31.8714 171.0446,29.9024 196,29.9024 196,31.8714 "
             fill="#d40511"
             id="polygon4" />
          <polygon
             points="166.9128,35.519 168.3537,33.5595 196,33.5595 196,35.5163 "
             fill="#d40511"
             id="polygon5" />
          <polygon
             points="196,26.2454 196,28.2143 172.287,28.2157 173.7354,26.2454 "
             fill="#d40511"
             id="polygon6" />
        </g>
      </g>
      <g
         id="g10">
        <path
           d="m 25.6726,35.5163 l 12.578,-17.0888 h 15.6082 c 1.7252,0 1.7026,0.655 0.8595,1.7975 c -0.8562,1.16 -2.3134,3.1547 -3.1854,4.3323 c -0.4426,0.5982 -1.2431,1.6881 1.4089,1.6881 h 20.9101 c -1.739,2.3822 -7.3796,9.2709 -17.5083,9.2709 z"
           fill="#d40511"
           id="path7" />
        <path
           d="m 97.7056,26.244 l -6.8202,9.2723 h -17.9924 c 0,0 6.8172,-9.2709 6.8233,-9.2709 z"
           fill="#d40511"
           id="path8" />
        <path
           d="m 123.7239,26.2454 l -6.8239,9.2709 h -17.9856 c 0,0 6.8178,-9.2709 6.8239,-9.2709 z"
           fill="#d40511"
           id="path9" />
        <path
           d="m 129.5749,26.2454 c 6e-4,0 -1.314,1.7975 -1.9528,2.6604 c -2.2593,3.0534 -0.2626,6.6105 7.1109,6.6105 h 28.8853 l 6.8226,-9.2709 h -40.8661 z"
           fill="#d40511"
           id="path10" />
      </g>
      <g
         id="g12">
        <path
           d="m 34.4685,7.8007 l -6.2621,8.5079 h 34.1288 c 1.7249,0 1.7023,0.655 0.8593,1.7975 c -0.8562,1.1587 -2.2894,3.1763 -3.1614,4.3539 c -0.4427,0.5969 -1.2431,1.6867 1.4089,1.6867 h 13.9564 c 0,0 2.2495,-3.0615 4.1352,-5.6206 c 2.5655,-3.4815 0.2225,-10.7254 -8.9486,-10.7254 z"
           fill="#d40511"
           id="path11" />
        <polygon
           points="81.2619,24.1467 93.2956,7.8007 111.2819,7.8007 104.3858,17.173 112.4136,17.173 119.3153,7.8007 137.2989,7.8007 125.2688,24.1467 "
           fill="#d40511"
           id="polygon11" />
        <path
           d="m 162.2084,7.8007 l -12.0314,16.346 h -19.0593 c 0,0 12.0355,-16.346 12.0415,-16.346 z"
           fill="#d40511"
           id="path12" />
      </g>
    </g>
    <g
       id="g19"
       transform="matrix(1.3061224,0,0,1.3061224,0,-2.3879694)">
      <path
         d="m 64.2428,55.8994 v -12.9832 h 8.6555 v 2.5375 h -5.7048 v 2.6557 h 5.1146 v 2.4393 h -5.1146 v 2.813 h 5.9012 v 2.5375 h -8.852 z"
         fill="#d40511"
         id="path13" />
      <path
         d="m 74.1769,55.8994 l 3.1473,-4.9964 l -2.9309,-5.0359 h 3.1277 l 1.6327,3.0882 h 0.3147 l 1.6327,-3.0882 h 2.9903 l -2.9312,5.0359 l 3.1476,4.9964 h -3.128 l -1.8491,-3.1277 h -0.3147 l -1.8491,3.1277 z"
         fill="#d40511"
         id="path14" />
      <path
         d="m 85.6843,59.6368 v -13.7698 h 2.6952 v 1.731 c 0.2755,-0.603 0.6719,-1.0753 1.1901,-1.4163 c 0.5179,-0.341 1.1114,-0.5115 1.7803,-0.5115 c 1.1276,0 2.0095,0.4298 2.6456,1.2884 c 0.6361,0.8592 0.9541,2.0362 0.9541,3.5312 v 0.787 c 0,1.495 -0.318,2.6723 -0.9541,3.5308 c -0.6361,0.8592 -1.5179,1.2887 -2.6456,1.2887 c -1.2985,0 -2.2361,-0.6033 -2.813,-1.81 v 5.3506 h -2.8525 z m 4.5835,-11.5668 c -0.7212,0 -1.2981,0.3082 -1.731,0.9247 v 3.7965 c 0.4328,0.6033 1.0098,0.9048 1.731,0.9048 c 0.5902,0 1.0426,-0.213 1.3576,-0.6391 c 0.3147,-0.4261 0.472,-1.0392 0.472,-1.8394 v -0.6688 c 0,-0.7998 -0.1573,-1.4129 -0.472,-1.8394 c -0.315,-0.4261 -0.7674,-0.6395 -1.3576,-0.6395 z"
         fill="#d40511"
         id="path15" />
      <path
         d="m 97.1134,55.8994 v -10.0324 h 2.6956 v 2.498 c 0.1432,-0.4457 0.3376,-0.8687 0.5794,-1.2688 c 0.2431,-0.3997 0.5577,-0.7279 0.9453,-0.9835 c 0.3862,-0.2559 0.8684,-0.3835 1.445,-0.3835 c 0.1188,0 0.2269,0.0034 0.3255,0.0098 c 0.0972,0.0068 0.2188,0.023 0.3633,0.049 v 2.6361 c -0.1053,-0.0128 -0.2201,-0.0226 -0.3444,-0.0294 c -0.1242,-0.0064 -0.2458,-0.0098 -0.3633,-0.0098 c -0.7225,0 -1.3127,0.1374 -1.7705,0.4129 c -0.4592,0.2755 -0.8008,0.5706 -1.0237,0.8852 v 6.2162 h -2.8522 z"
         fill="#d40511"
         id="path16" />
      <path
         d="m 109.4278,56.1354 c -1.5085,0 -2.7118,-0.4261 -3.6098,-1.2786 c -0.8987,-0.8525 -1.3478,-2.046 -1.3478,-3.5801 v -0.787 c 0,-1.5078 0.4166,-2.6949 1.2492,-3.5605 c 0.8326,-0.8656 1.944,-1.2985 3.3343,-1.2985 c 1.4031,0 2.4889,0.4328 3.256,1.2985 c 0.7671,0.8657 1.1506,2.0656 1.1506,3.5997 v 1.2198 h -6.1568 c 0.1573,1.4035 0.9372,2.1047 2.3404,2.1047 c 0.4592,0 0.8819,-0.0655 1.2688,-0.1965 c 0.3869,-0.131 0.7704,-0.3214 1.1513,-0.5706 l 1.1601,1.7901 c -0.4983,0.3805 -1.0655,0.6854 -1.7016,0.9149 c -0.6361,0.2292 -1.3343,0.344 -2.0946,0.344 z m -0.4328,-8.2227 c -0.5638,0 -0.9838,0.1806 -1.2593,0.5409 c -0.2748,0.3609 -0.4322,0.869 -0.472,1.5247 h 3.4626 c -0.0398,-0.6557 -0.1972,-1.1638 -0.4727,-1.5247 c -0.2748,-0.3602 -0.6948,-0.5409 -1.2586,-0.5409 z"
         fill="#d40511"
         id="path17" />
      <path
         d="m 118.5347,56.1354 c -0.813,0 -1.5341,-0.105 -2.1635,-0.3147 c -0.6294,-0.2097 -1.2195,-0.5439 -1.7705,-1.0034 l 1.1412,-1.8292 c 0.8386,0.6293 1.757,0.944 2.7536,0.944 c 1.0358,0 1.5544,-0.3079 1.5544,-0.9244 c 0,-0.4328 -0.3613,-0.7279 -1.0824,-0.8852 l -1.0817,-0.236 c -0.9048,-0.1968 -1.5969,-0.5608 -2.075,-1.0919 c -0.4794,-0.5311 -0.7185,-1.1965 -0.7185,-1.9967 c 0,-0.9963 0.3572,-1.7735 1.0723,-2.3309 c 0.7144,-0.5574 1.7016,-0.8363 2.9602,-0.8363 c 1.4821,0 2.7611,0.3872 3.836,1.1607 l -1.0817,1.8296 c -0.7212,-0.5243 -1.5409,-0.787 -2.4592,-0.787 c -0.944,0 -1.416,0.2887 -1.416,0.8657 c 0,0.472 0.3606,0.7867 1.0817,0.9443 l 1.102,0.236 c 1.8616,0.4065 2.7928,1.4035 2.7928,2.99 c 0,1.0362 -0.3903,1.8394 -1.1702,2.4099 c -0.7806,0.5702 -1.8724,0.8555 -3.2756,0.8555 z"
         fill="#d40511"
         id="path18" />
      <path
         d="m 128.0954,56.1354 c -0.813,0 -1.5341,-0.105 -2.1635,-0.3147 c -0.6294,-0.2097 -1.2195,-0.5439 -1.7705,-1.0034 l 1.1412,-1.8292 c 0.8386,0.6293 1.757,0.944 2.7536,0.944 c 1.0358,0 1.5544,-0.3079 1.5544,-0.9244 c 0,-0.4328 -0.3613,-0.7279 -1.0824,-0.8852 l -1.0817,-0.236 c -0.9048,-0.1968 -1.5969,-0.5608 -2.075,-1.0919 c -0.4794,-0.5311 -0.7185,-1.1965 -0.7185,-1.9967 c 0,-0.9963 0.3572,-1.7735 1.0723,-2.3309 c 0.7144,-0.5574 1.7016,-0.8363 2.9602,-0.8363 c 1.4821,0 2.7611,0.3872 3.836,1.1607 l -1.0817,1.8296 c -0.7212,-0.5243 -1.5409,-0.787 -2.4592,-0.787 c -0.944,0 -1.416,0.2887 -1.416,0.8657 c 0,0.472 0.3606,0.7867 1.0817,0.9443 l 1.102,0.236 c 1.8616,0.4065 2.7928,1.4035 2.7928,2.99 c 0,1.0362 -0.3903,1.8394 -1.1702,2.4099 c -0.7806,0.5702 -1.8724,0.8555 -3.2756,0.8555 z"
         fill="#d40511"
         id="path19" />
    </g>
  </g>
</svg>
